# xmcd CD database file
# Copyright (C) 1995 Ti Kan
#
# Track frame offsets:
#	150
#	25807
#	44876
#	64751
#	91894
#	108674
#	136102
#	149371
#	163246
#	181105
#	192756
#	206239
#
# Disc length: 2954 seconds
#
# Revision: 1
# Processed by: cddbd v1.4b41PL3 Copyright (c) Steve Scherf et al.
# Submitted via: NotifyCDPlayer(CDDB) 1.60beta5_freedb
#
DISCID=b00b880c
DTITLE=Adrian Byron Burns - Essentially Adrian Byron Burns - Volume 2
DYEAR=1900
DGENRE=
TTITLE0=Finally... When You Fall
TTITLE1=Get Inside Your Groove
TTITLE2=P.C. Blues
TTITLE3=I'm Just Not The Man I Used To Be
TTITLE4=Get It On
TTITLE5=Rio Blues
TTITLE6=What The Hell You Want To Lie To Me For?
TTITLE7=Bad Start
TTITLE8=Paying Dues
TTITLE9=Xenophobia Blues
TTITLE10=You've Met Your Match
TTITLE11=Rolling On
EXTD=
EXTT0=
EXTT1=
EXTT2=
EXTT3=
EXTT4=
EXTT5=
EXTT6=
EXTT7=
EXTT8=
EXTT9=
EXTT10=
EXTT11=
PLAYORDER=
